<?xml version="1.0" standalone="no"?>
<!DOCTYPE svg PUBLIC "-//W3C//DTD SVG 20010904//EN"
 "http://www.w3.org/TR/2001/REC-SVG-20010904/DTD/svg10.dtd">
<svg version="1.0" xmlns="http://www.w3.org/2000/svg"
 width="1600.000000pt" height="1600.000000pt" viewBox="0 0 1600.000000 1600.000000"
 preserveAspectRatio="xMidYMid meet">
<metadata>
Created by potrace 1.14, written by Peter Selinger 2001-2017
</metadata>
<g transform="translate(0.000000,1600.000000) scale(0.100000,-0.100000)"
fill="#000000" stroke="none">
<path d="M12367 12753 c-1 -1 -216 -5 -477 -8 -261 -4 -592 -8 -735 -10 -143
-2 -301 -4 -350 -4 l-91 -1 -17 -67 c-9 -38 -20 -79 -23 -93 -3 -14 -6 -29 -7
-35 -2 -5 -6 -16 -10 -22 -5 -7 -6 -13 -2 -13 3 0 -1 -16 -10 -35 -8 -20 -10
-33 -4 -29 8 4 8 1 1 -12 -5 -11 -22 -66 -37 -124 -15 -58 -33 -130 -41 -160
-8 -30 -16 -64 -18 -75 -3 -11 -9 -35 -15 -52 -5 -18 -8 -33 -6 -33 2 0 -2
-15 -10 -34 -8 -18 -12 -36 -9 -39 3 -3 2 -12 -2 -19 -5 -7 -9 -18 -10 -23 -1
-6 -21 -85 -44 -175 -23 -91 -44 -172 -45 -180 -2 -8 -4 -15 -5 -15 -3 0 -11
-41 -12 -62 0 -13 -4 -23 -8 -23 -4 0 -10 -15 -13 -32 -6 -43 -16 -88 -24
-113 -4 -11 -8 -24 -9 -30 -4 -17 -31 -124 -64 -250 -17 -66 -33 -128 -35
-138 -2 -10 -7 -27 -10 -37 -3 -10 -7 -27 -10 -37 -2 -10 -17 -74 -35 -143
-18 -69 -34 -132 -36 -140 -2 -8 -8 -33 -14 -55 -6 -22 -12 -47 -14 -55 -2 -8
-9 -33 -14 -55 -6 -22 -13 -51 -16 -65 -3 -14 -17 -70 -32 -125 -15 -55 -28
-107 -29 -115 -1 -8 -8 -35 -15 -60 -16 -54 -16 -56 -25 -99 -3 -19 -8 -38
-11 -43 -3 -4 -7 -17 -10 -28 -8 -40 -13 -57 -48 -195 -41 -155 -47 -183 -51
-205 -1 -8 -5 -22 -8 -30 -6 -15 -72 -275 -129 -505 -18 -71 -36 -132 -40
-133 -5 -2 -6 -7 -3 -11 2 -5 -15 -84 -40 -177 -24 -92 -41 -172 -39 -176 3
-4 1 -8 -4 -8 -5 0 -9 -6 -9 -12 -1 -16 -7 -44 -33 -143 -11 -44 -23 -91 -26
-104 -3 -13 -9 -32 -15 -43 -5 -10 -8 -18 -5 -18 3 0 0 -15 -5 -32 -12 -38
-21 -77 -23 -98 -1 -9 -5 -20 -8 -26 -4 -6 -9 -21 -12 -35 -6 -28 -16 -77 -21
-99 -2 -8 -4 -15 -5 -15 -1 0 -3 -7 -5 -15 -6 -28 -23 -95 -50 -195 -14 -55
-28 -111 -30 -125 -2 -14 -4 -26 -6 -27 -1 -2 -3 -7 -4 -13 -1 -5 -4 -11 -5
-12 -1 -2 -4 -12 -6 -23 -2 -11 -15 -65 -29 -120 -28 -108 -65 -251 -70 -275
-2 -8 -4 -15 -5 -15 -1 0 -4 -11 -7 -25 -7 -39 -11 -55 -13 -55 -1 0 -4 -10
-13 -50 -3 -11 -17 -65 -31 -120 -15 -55 -29 -109 -31 -120 -38 -170 -63 -242
-66 -187 0 9 -2 24 -5 32 -4 16 -21 90 -30 130 -3 14 -11 45 -18 70 -7 25 -14
47 -14 50 -1 8 -10 46 -33 145 -12 50 -23 97 -24 105 -1 8 -5 22 -8 30 -4 8
-8 29 -11 45 -2 17 -5 30 -6 30 -1 0 -3 7 -5 15 -2 8 -8 35 -14 60 -7 25 -14
55 -17 68 -4 21 -28 117 -54 220 -4 17 -6 32 -4 32 3 0 0 9 -6 20 -6 10 -12
32 -15 47 -4 26 -29 134 -40 176 -3 9 -7 27 -10 40 -2 12 -9 43 -15 68 -6 26
-13 53 -14 60 -2 8 -6 21 -9 29 -5 15 -15 53 -24 100 -8 42 -11 55 -13 55 -1
0 -3 7 -5 15 -4 18 -12 52 -25 108 -5 23 -15 61 -20 85 -6 23 -13 53 -16 67
-3 14 -19 79 -35 145 -17 66 -32 127 -34 135 -2 8 -9 38 -15 65 -6 28 -14 58
-16 68 -2 9 -6 25 -8 35 -2 10 -25 103 -51 208 -26 104 -48 198 -49 210 -2 11
-6 26 -10 32 -3 6 -8 23 -11 39 -2 15 -9 46 -14 68 -5 22 -12 49 -14 61 -3 11
-19 79 -37 150 -17 71 -33 136 -35 144 -2 8 -9 38 -15 65 -7 28 -14 64 -17 80
-3 17 -8 32 -12 35 -4 3 -6 12 -6 20 1 8 -7 43 -16 78 -10 34 -15 62 -13 62 3
0 0 8 -5 18 -6 11 -12 30 -15 43 -5 28 -20 102 -21 109 -1 3 -5 12 -8 20 -4 8
-8 26 -10 40 -2 14 -7 32 -10 40 -4 8 -9 29 -11 45 -3 17 -7 39 -10 50 -3 11
-12 49 -21 85 -8 36 -33 139 -55 230 -23 91 -44 182 -47 203 -3 20 -9 37 -12
37 -4 0 -7 10 -8 23 -1 28 -11 70 -23 102 -5 14 -8 25 -6 25 2 0 -2 21 -10 46
-7 25 -13 49 -12 52 1 4 -1 14 -5 22 -5 13 -21 82 -31 131 -2 8 -6 21 -9 29
-3 8 -11 40 -17 70 -6 30 -14 62 -17 70 -4 8 -6 18 -5 22 1 3 -6 32 -14 65
-15 54 -18 66 -28 111 -2 9 -9 37 -15 62 -7 25 -14 55 -17 68 -2 13 -14 60
-25 105 -11 45 -22 91 -24 102 -2 11 -9 38 -14 60 -5 22 -13 54 -17 70 -10 43
-10 43 -28 115 -9 36 -19 76 -22 90 -2 14 -9 39 -14 55 -5 17 -11 44 -14 60
-2 17 -5 30 -6 30 -1 0 -4 11 -7 25 -7 39 -11 55 -13 55 -1 0 -3 7 -5 15 -7
32 -15 67 -27 120 l-13 55 -1037 3 -1037 2 -10 -37 c-10 -37 -39 -160 -46
-196 -2 -10 -7 -27 -10 -37 -3 -10 -7 -27 -9 -37 -6 -28 -35 -152 -46 -193 -5
-19 -12 -45 -15 -57 -3 -12 -8 -31 -10 -42 -3 -12 -7 -29 -9 -38 -16 -66 -44
-183 -50 -213 -3 -11 -7 -24 -10 -28 -2 -4 -7 -27 -11 -52 -4 -25 -9 -48 -12
-52 -2 -5 -7 -21 -10 -36 -8 -41 -11 -57 -13 -57 -1 0 -3 -9 -5 -20 -2 -11
-16 -67 -30 -125 -14 -58 -29 -116 -32 -130 -11 -51 -12 -55 -13 -55 -1 0 -3
-9 -5 -20 -2 -11 -11 -50 -20 -85 -9 -36 -18 -76 -21 -90 -3 -14 -10 -43 -16
-65 -5 -22 -12 -49 -15 -60 -2 -11 -5 -24 -7 -30 -2 -5 -7 -28 -11 -50 -5 -22
-10 -42 -10 -45 -1 -3 -6 -23 -13 -45 -6 -22 -13 -51 -16 -65 -3 -14 -10 -45
-16 -70 -6 -25 -13 -54 -15 -65 -2 -11 -8 -35 -14 -52 -5 -18 -8 -33 -5 -33 3
0 0 -8 -5 -17 -5 -10 -11 -31 -14 -48 -3 -16 -20 -88 -37 -160 -18 -71 -33
-137 -35 -145 -2 -8 -11 -44 -20 -79 -9 -36 -17 -73 -18 -83 -1 -10 -5 -18
-10 -18 -4 0 -6 -4 -3 -8 3 -5 -4 -42 -15 -83 -10 -41 -21 -85 -24 -99 -3 -14
-7 -34 -10 -45 -40 -162 -52 -215 -47 -220 3 -3 1 -5 -4 -5 -6 0 -11 -10 -11
-22 -1 -13 -13 -70 -28 -128 -15 -58 -28 -112 -30 -120 -2 -8 -11 -46 -20 -85
-10 -38 -18 -74 -19 -80 -1 -5 -4 -14 -7 -20 -4 -5 -5 -18 -4 -27 2 -10 -2
-18 -8 -18 -5 0 -8 -2 -5 -5 4 -5 -1 -33 -27 -135 -2 -8 -4 -15 -5 -15 -1 0
-3 -13 -5 -29 -2 -16 -7 -36 -11 -45 -4 -9 -8 -23 -9 -31 -2 -21 -36 -162 -42
-180 -3 -8 -7 -22 -8 -30 -3 -16 -32 -144 -39 -170 -3 -8 -14 -55 -26 -105
-12 -49 -23 -97 -25 -105 -16 -61 -87 -360 -91 -379 -3 -14 -7 -28 -9 -31 -2
-4 -7 -21 -10 -39 -3 -17 -24 -104 -46 -194 -22 -89 -42 -171 -45 -182 -2 -11
-7 -31 -10 -45 -3 -14 -7 -34 -9 -45 -2 -11 -4 -20 -5 -20 -1 0 -3 -7 -5 -15
-1 -8 -7 -33 -13 -55 -6 -22 -13 -51 -16 -65 -3 -14 -12 -54 -21 -90 -9 -36
-19 -76 -21 -89 -3 -14 -7 -28 -9 -31 -2 -4 -7 -20 -9 -36 -6 -30 -8 -39 -27
-114 -6 -25 -12 -52 -14 -61 -2 -8 -10 -44 -19 -80 -9 -35 -18 -73 -21 -84
-29 -130 -50 -205 -56 -205 -4 0 -6 9 -4 20 2 11 -1 20 -7 20 -6 0 -9 3 -5 6
3 3 -1 29 -10 57 -15 51 -20 71 -29 117 -3 14 -8 34 -11 45 -4 11 -8 25 -9 30
-1 6 -14 56 -29 113 -14 56 -29 114 -31 129 -3 15 -7 30 -10 35 -3 4 -7 18 -9
30 -6 31 -26 109 -32 128 -4 8 -7 22 -9 31 -2 9 -20 79 -40 155 -20 76 -40
159 -46 184 -13 60 -16 74 -19 80 -1 3 -3 10 -4 15 0 6 -4 21 -8 35 -4 14 -12
43 -18 65 -6 22 -14 54 -19 70 -5 17 -11 41 -14 55 -3 14 -9 40 -15 58 -5 17
-8 32 -5 32 3 0 0 8 -5 18 -6 11 -12 30 -15 43 -2 13 -25 107 -51 209 -26 102
-49 194 -52 205 -3 11 -6 27 -7 35 -1 9 -5 20 -8 25 -5 8 -13 39 -23 95 -1 3
-4 14 -8 25 -3 11 -8 31 -11 45 -3 14 -10 43 -16 65 -6 22 -13 48 -15 58 -2
10 -7 27 -10 37 -6 20 -15 56 -20 80 -1 8 -5 22 -8 30 -6 19 -27 98 -32 125
-2 11 -4 21 -5 23 -2 1 -4 7 -5 12 -1 6 -4 11 -5 13 -1 1 -4 13 -5 27 -2 14
-9 43 -15 65 -6 22 -13 48 -15 58 -2 10 -7 27 -10 37 -3 10 -7 27 -9 37 -3 15
-21 81 -42 158 -3 11 -6 30 -7 43 -1 12 -4 22 -8 22 -4 0 -10 17 -13 38 -12
77 -16 94 -22 104 -4 6 -15 45 -25 87 -9 42 -29 121 -44 176 -14 55 -27 107
-29 115 -2 8 -6 22 -9 30 -4 8 -8 29 -11 45 -2 17 -5 30 -6 30 -1 0 -3 7 -5
15 -4 19 -26 104 -60 235 -14 55 -27 108 -30 118 -2 9 -11 45 -20 80 -9 34
-19 71 -21 82 -3 11 -7 27 -9 35 -2 8 -4 15 -5 15 -1 0 -3 9 -5 20 -4 24 -9
46 -25 105 -7 25 -14 52 -16 60 -24 101 -76 308 -79 318 -3 7 -5 14 -6 17 0 2
-14 55 -31 117 -16 62 -31 122 -34 133 -12 59 -22 98 -25 105 -1 3 -3 10 -4
15 -1 6 -5 17 -8 25 -3 8 -8 29 -11 45 -6 30 -13 55 -16 65 -1 3 -2 8 -1 12 0
4 -4 19 -9 33 -5 14 -12 36 -15 48 -2 12 -9 40 -15 62 -6 22 -13 49 -15 60 -3
11 -7 29 -10 40 -8 35 -83 328 -99 387 -8 31 -17 68 -20 82 -3 14 -7 29 -10
34 -3 5 -8 24 -11 43 -3 19 -11 52 -17 74 -6 22 -12 42 -13 45 0 3 -9 38 -19
78 l-18 72 -1139 0 c-626 0 -1139 -1 -1139 -3 0 -1 9 -28 20 -60 11 -31 22
-65 24 -74 1 -10 6 -25 9 -33 3 -8 15 -46 27 -85 28 -94 110 -356 117 -375 3
-8 8 -26 10 -40 2 -13 9 -27 15 -31 5 -3 9 -8 7 -10 -4 -6 23 -113 31 -124 6
-9 20 -55 21 -70 0 -3 6 -23 14 -45 8 -22 11 -40 7 -40 -4 0 -2 -4 5 -8 6 -4
14 -19 17 -32 6 -32 63 -219 75 -245 5 -11 18 -51 29 -90 11 -38 46 -151 77
-250 31 -99 58 -187 60 -195 2 -8 10 -34 19 -58 8 -23 15 -46 16 -50 0 -4 13
-47 29 -97 44 -139 81 -259 82 -267 0 -4 6 -23 15 -43 8 -19 14 -37 14 -40 0
-3 0 -6 1 -7 0 -2 2 -12 4 -23 2 -10 8 -28 14 -40 8 -16 70 -207 77 -237 1 -5
2 -9 3 -10 2 -2 4 -14 7 -28 2 -14 7 -32 11 -40 3 -8 7 -17 8 -20 1 -3 11 -39
24 -80 12 -41 25 -82 28 -90 4 -8 7 -17 8 -20 0 -3 9 -32 20 -65 10 -33 19
-62 20 -65 1 -3 7 -25 15 -50 7 -25 13 -48 12 -52 -1 -5 2 -8 6 -8 4 0 8 -8 9
-18 1 -10 15 -60 33 -112 17 -52 32 -102 33 -110 2 -8 5 -19 9 -25 5 -8 25
-74 34 -110 1 -5 14 -48 29 -95 15 -47 28 -89 30 -95 1 -5 5 -17 8 -25 10 -23
49 -149 51 -163 1 -6 5 -17 8 -23 4 -6 9 -21 12 -35 4 -21 36 -128 79 -259 19
-59 42 -134 43 -140 0 -3 3 -12 6 -20 20 -55 37 -110 43 -140 4 -19 11 -39 15
-45 5 -8 28 -82 36 -115 0 -3 6 -18 12 -33 7 -16 12 -34 12 -40 1 -7 8 -30 16
-52 8 -22 17 -49 19 -60 3 -11 15 -54 29 -95 13 -41 40 -129 61 -195 20 -66
40 -127 43 -135 3 -8 6 -19 7 -25 0 -5 4 -17 7 -25 7 -16 33 -99 93 -295 20
-66 52 -167 70 -225 67 -209 109 -345 111 -355 1 -5 9 -32 19 -60 9 -27 18
-57 20 -65 2 -8 13 -41 24 -72 11 -32 17 -58 13 -58 -3 0 -1 -5 6 -12 7 -7 12
-21 12 -33 0 -12 5 -26 12 -33 7 -7 9 -12 5 -12 -4 0 0 -17 8 -37 12 -33 48
-149 50 -163 0 -3 5 -18 12 -35 6 -16 25 -77 43 -135 17 -58 35 -116 40 -130
5 -14 27 -86 50 -160 50 -163 69 -220 77 -240 3 -8 8 -24 10 -35 2 -11 19 -69
39 -130 20 -60 38 -117 39 -125 2 -8 4 -16 5 -17 2 -2 3 -6 4 -10 2 -11 66
-214 76 -243 5 -14 25 -79 45 -145 20 -66 52 -167 71 -225 19 -57 34 -111 34
-120 0 -9 3 -20 7 -24 5 -4 8 -11 8 -14 1 -8 43 -140 52 -162 3 -8 6 -18 5
-22 -1 -4 3 -20 10 -35 6 -15 12 -34 14 -41 3 -18 65 -213 74 -237 10 -25 57
-180 66 -218 3 -15 10 -30 15 -32 6 -4 1158 -7 1900 -5 l87 0 7 33 c4 17 10
41 12 52 10 45 12 50 13 50 1 0 3 7 5 15 1 8 11 44 20 80 9 36 19 72 20 80 2
8 11 42 20 75 18 66 105 401 110 425 2 8 8 30 14 48 5 17 8 32 6 32 -3 0 0 11
5 25 5 14 12 36 14 48 3 12 12 47 21 77 9 30 18 66 21 80 9 46 35 145 41 160
4 8 8 22 9 30 1 8 25 103 53 210 62 234 60 226 65 248 2 9 12 46 21 82 9 36
18 70 19 75 2 6 8 30 15 54 7 25 14 56 16 70 2 14 4 27 6 29 1 1 3 7 4 12 1 6
3 11 5 13 1 1 3 9 5 17 2 8 9 33 15 55 6 22 13 51 16 65 3 14 8 34 11 45 4 11
8 25 9 30 10 46 20 86 70 275 31 118 57 220 58 225 1 6 5 16 9 23 5 6 6 12 3
12 -2 0 0 15 5 33 6 17 12 39 14 47 1 8 10 42 19 75 9 33 19 71 22 85 9 39 10
42 23 90 13 44 17 62 27 107 2 12 9 35 15 50 6 16 10 29 10 31 -1 1 0 4 0 7 1
3 2 13 3 23 1 9 4 22 7 27 5 8 65 239 74 285 2 8 4 15 5 15 1 0 3 7 5 15 1 9
13 51 25 95 12 44 24 89 26 100 3 17 11 50 20 88 1 4 2 8 4 10 1 1 3 9 5 17
10 39 15 57 24 88 5 18 10 35 10 37 1 3 1 6 2 8 0 1 2 9 4 17 1 8 8 35 15 60
7 25 14 53 16 63 2 10 6 27 9 37 3 10 8 27 10 37 2 10 16 63 30 118 15 55 29
111 31 124 3 14 7 28 10 33 3 5 7 18 10 31 5 29 11 54 24 102 6 22 14 51 17
65 2 14 7 32 10 40 4 8 6 18 5 22 -1 4 3 20 9 35 10 27 14 38 24 84 2 11 7 29
10 39 3 10 8 27 10 37 3 10 9 38 15 63 6 25 13 52 17 60 3 8 7 22 8 30 4 23
13 59 31 125 9 33 17 67 19 75 2 8 18 69 35 135 18 66 34 127 35 135 2 8 4 15
5 15 2 0 6 18 14 64 4 19 12 43 18 55 6 11 10 23 9 26 -3 8 31 144 39 153 4 5
11 -9 15 -30 5 -21 9 -42 11 -48 2 -5 5 -20 8 -33 3 -12 8 -26 11 -32 3 -5 8
-22 10 -37 3 -16 9 -46 15 -68 6 -22 16 -58 21 -80 5 -22 12 -47 16 -55 3 -8
7 -24 9 -35 2 -11 16 -69 33 -129 16 -61 28 -114 25 -118 -3 -4 0 -8 5 -8 6 0
11 -12 11 -26 0 -14 5 -34 10 -44 6 -11 12 -32 15 -47 2 -15 8 -44 14 -63 5
-19 23 -89 41 -155 17 -66 36 -136 41 -155 5 -19 12 -46 15 -60 3 -14 8 -34
11 -45 4 -11 7 -27 9 -35 1 -8 18 -73 37 -144 20 -71 34 -133 31 -138 -3 -4 0
-8 5 -8 6 0 11 -13 11 -29 0 -17 4 -32 9 -35 5 -4 8 -14 6 -24 -1 -9 2 -23 8
-29 5 -7 6 -13 2 -13 -4 0 -2 -7 5 -15 7 -8 10 -15 7 -15 -3 0 0 -21 8 -47 18
-62 115 -432 120 -458 5 -25 80 -308 94 -352 5 -18 8 -33 6 -33 -3 0 0 -11 4
-24 5 -13 34 -119 65 -237 30 -118 62 -239 70 -271 9 -31 18 -67 20 -80 3 -12
19 -75 36 -138 17 -63 33 -123 35 -133 2 -10 14 -52 25 -95 12 -42 23 -85 25
-95 2 -10 7 -27 10 -37 3 -10 8 -28 10 -39 3 -12 7 -29 9 -40 2 -10 23 -87 46
-172 22 -84 42 -160 44 -169 6 -29 18 -75 23 -90 4 -8 8 -26 10 -40 2 -14 11
-50 20 -80 9 -30 18 -59 19 -65 1 -5 7 -30 14 -55 7 -25 13 -49 14 -55 2 -5 8
-29 15 -53 6 -23 9 -47 6 -52 -3 -6 -2 -10 4 -10 8 0 27 -75 20 -82 -1 -2 3
-14 10 -26 12 -23 21 -58 24 -94 1 -10 6 -18 11 -18 5 0 7 -3 4 -6 -4 -3 -2
-20 3 -37 6 -18 12 -39 14 -47 2 -8 15 -60 30 -115 14 -55 28 -107 30 -115 1
-8 8 -33 14 -55 6 -22 11 -43 12 -47 0 -4 7 -31 16 -60 8 -29 18 -69 23 -88 4
-19 16 -62 25 -95 9 -33 18 -67 20 -75 2 -8 13 -51 25 -95 18 -69 26 -101 33
-150 1 -5 4 -12 7 -15 4 -3 13 -34 21 -70 l14 -65 996 -3 995 -2 24 82 c14 46
25 85 26 88 0 3 3 12 7 20 3 8 28 87 55 175 28 88 54 171 58 185 4 14 8 27 9
30 0 3 14 46 30 95 16 50 30 95 31 100 1 6 17 55 34 110 18 55 36 116 42 135
6 19 13 40 16 45 4 6 8 19 9 30 3 18 37 129 50 165 3 8 7 20 8 25 3 10 25 82
51 163 8 23 14 49 14 57 0 8 4 15 8 15 4 0 8 8 9 18 1 9 8 37 16 62 16 46 79
249 83 263 1 4 3 9 4 12 1 3 4 10 5 15 1 6 4 12 5 15 1 3 3 8 4 13 1 4 6 23
10 42 5 19 12 41 17 50 9 18 70 219 72 240 1 8 4 17 7 20 5 4 32 87 33 100 0
3 11 37 24 75 13 39 26 77 28 85 4 18 44 149 52 170 8 19 7 18 17 60 5 19 12
40 17 45 4 6 10 22 12 36 3 13 22 76 42 139 20 63 43 135 50 160 7 25 38 126
70 225 31 99 58 187 60 196 2 8 10 32 19 52 8 20 13 37 10 37 -2 0 2 16 10 35
9 20 15 38 15 40 1 18 15 62 24 73 5 6 7 12 3 12 -3 0 3 24 13 53 11 28 32 93
46 142 15 50 42 137 61 195 18 58 54 173 79 255 64 204 99 317 126 400 13 39
24 75 24 80 1 6 23 78 50 160 27 83 50 156 52 163 2 6 5 20 7 30 3 9 5 18 6
20 2 1 4 7 5 12 1 6 4 12 5 15 1 3 4 10 5 15 1 6 3 11 5 13 1 1 3 9 5 17 1 9
19 67 40 130 21 63 38 122 39 130 1 8 8 25 14 38 7 12 10 22 7 22 -2 0 2 17 9
38 8 20 30 89 49 152 20 63 39 126 43 140 5 14 9 28 10 33 1 4 3 9 4 12 1 3 4
10 5 15 1 6 4 12 5 15 1 3 4 10 5 15 1 6 4 12 5 15 1 3 3 8 4 13 2 4 9 27 16
52 7 25 14 47 15 50 2 12 57 187 62 200 4 8 7 18 8 23 2 4 4 9 5 12 1 3 3 8 4
13 1 4 10 34 20 67 10 33 19 66 19 73 0 6 5 12 10 12 6 0 8 2 5 5 -3 3 10 54
29 113 19 59 37 118 39 132 3 13 10 30 15 36 5 7 9 16 8 20 -1 5 1 16 4 24 4
8 18 51 31 95 13 44 40 132 60 195 21 63 39 122 41 130 7 25 42 140 75 245 39
126 37 119 39 128 0 4 8 23 16 43 8 20 12 40 9 45 -3 5 0 9 5 9 6 0 11 8 11
18 0 10 12 52 26 93 14 41 27 81 29 89 4 19 84 279 92 300 3 8 7 20 8 25 2 6
19 61 39 124 20 63 36 118 36 122 0 4 5 20 12 36 7 15 13 33 13 38 1 6 5 17 8
25 8 22 67 214 67 222 1 4 7 23 16 43 8 19 11 35 7 35 -4 0 -2 5 5 12 7 7 12
21 12 33 0 12 5 26 12 33 7 7 9 12 6 12 -4 0 0 16 8 35 8 19 12 35 10 35 -3 0
2 17 10 37 9 20 18 45 20 56 2 10 6 27 9 38 6 18 -3 19 -290 16 -163 -1 -297
-3 -298 -4z"/>
<path d="M14387 6404 c-1 -1 -31 -4 -67 -8 -36 -3 -75 -8 -86 -10 -12 -2 -37
-7 -57 -10 -62 -10 -185 -46 -257 -76 -39 -16 -70 -26 -70 -22 0 4 -4 2 -8 -3
-4 -6 -33 -23 -65 -39 -31 -16 -60 -33 -63 -37 -3 -5 -10 -7 -15 -4 -5 4 -9 1
-9 -4 0 -6 -7 -11 -15 -11 -8 0 -15 -4 -15 -10 0 -5 -7 -10 -15 -10 -7 0 -18
-6 -22 -13 -4 -7 -26 -24 -48 -38 -64 -42 -143 -116 -255 -239 -8 -9 -31 -38
-50 -66 -19 -27 -38 -50 -42 -52 -4 -2 -8 -9 -8 -17 0 -7 -6 -17 -13 -24 -8
-6 -26 -37 -42 -68 -16 -32 -33 -61 -38 -64 -5 -3 -9 -10 -8 -15 0 -5 -9 -29
-20 -53 -10 -24 -19 -46 -19 -48 0 -3 -6 -19 -14 -36 -16 -35 -34 -93 -41
-126 -2 -11 -6 -24 -8 -29 -3 -4 -8 -25 -12 -47 -8 -47 -13 -70 -15 -70 -1 0
-3 -13 -5 -30 -1 -16 -6 -61 -11 -100 -16 -140 -7 -370 20 -510 4 -25 37 -151
49 -190 2 -5 7 -21 11 -35 12 -42 69 -172 93 -215 13 -22 28 -52 34 -67 6 -16
15 -28 20 -28 5 0 9 -7 9 -15 0 -8 5 -15 10 -15 6 0 10 -6 10 -14 0 -8 3 -16
8 -18 4 -1 21 -23 37 -47 30 -44 182 -204 240 -252 78 -65 345 -222 370 -218
3 0 31 -9 63 -21 31 -12 64 -24 72 -26 101 -26 186 -44 222 -47 25 -2 49 -6
54 -9 16 -11 448 1 462 12 1 2 11 4 22 5 11 1 21 3 23 5 1 1 10 3 21 5 47 9
124 29 156 40 42 16 62 22 73 24 4 0 22 8 40 18 17 9 34 18 37 18 17 3 112 53
147 77 23 15 46 28 52 28 6 0 11 4 11 9 0 5 8 12 18 15 10 4 27 14 38 24 10 9
33 28 49 40 36 28 159 148 198 194 84 100 227 341 227 383 0 8 4 15 9 15 5 0
13 15 16 33 4 17 12 43 18 57 5 14 11 30 13 35 15 59 36 145 40 165 2 14 6 34
8 45 14 65 21 159 21 300 0 158 -5 217 -25 325 -19 102 -22 115 -31 133 -5 9
-7 17 -5 17 6 0 -34 115 -61 180 -38 92 -124 250 -135 250 -4 0 -8 7 -8 15 0
8 -4 15 -10 15 -5 0 -10 5 -10 11 0 5 -13 24 -30 42 -16 18 -30 36 -30 40 0
15 -231 237 -247 237 -3 0 -22 14 -43 30 -21 17 -43 30 -49 30 -6 0 -11 4 -11
9 0 5 -15 14 -32 22 -18 7 -35 16 -38 19 -12 14 -240 113 -240 103 0 -3 -7 0
-15 7 -9 7 -18 10 -22 7 -3 -4 -11 -3 -17 2 -17 14 -158 44 -276 57 -50 6
-268 12 -273 8z"/>
</g>
</svg>
